<?xml version="1.0" encoding="UTF-8" standalone="no"?>
<!DOCTYPE svg PUBLIC "-//W3C//DTD SVG 1.1//EN"
 "http://www.w3.org/Graphics/SVG/1.1/DTD/svg11.dtd">
<!-- Generated by graphviz version 9.0.0 (20230911.1827)
 -->
<!-- Title: email_flow Pages: 1 -->
<svg width="398pt" height="548pt"
 viewBox="0.00 0.00 397.74 548.00" xmlns="http://www.w3.org/2000/svg" xmlns:xlink="http://www.w3.org/1999/xlink">
<g id="graph0" class="graph" transform="scale(1 1) rotate(0) translate(4 544)">
<title>email_flow</title>
<polygon fill="white" stroke="none" points="-4,4 -4,-544 393.74,-544 393.74,4 -4,4"/>
<!-- email -->
<g id="node1" class="node">
<title>email</title>
<polygon fill="none" stroke="black" points="186.5,-540 67.75,-540 67.75,-504 192.5,-504 192.5,-534 186.5,-540"/>
<polyline fill="none" stroke="black" points="186.5,-540 186.5,-534"/>
<polyline fill="none" stroke="black" points="192.5,-534 186.5,-534"/>
<text text-anchor="middle" x="130.12" y="-517.33" font-family="Times,serif" font-size="14.00">incoming email</text>
</g>
<!-- postgrey -->
<g id="node9" class="node">
<title>postgrey</title>
<ellipse fill="none" stroke="black" cx="130.12" cy="-450" rx="55.42" ry="18"/>
<text text-anchor="middle" x="130.12" y="-445.32" font-family="Times,serif" font-size="14.00">postgrey</text>
</g>
<!-- email&#45;&gt;postgrey -->
<g id="edge9" class="edge">
<title>email&#45;&gt;postgrey</title>
<path fill="none" stroke="black" d="M130.12,-503.7C130.12,-496.41 130.12,-487.73 130.12,-479.54"/>
<polygon fill="black" stroke="black" points="133.62,-479.62 130.12,-469.62 126.62,-479.62 133.62,-479.62"/>
</g>
<!-- smtp -->
<g id="node2" class="node">
<title>smtp</title>
<ellipse fill="none" stroke="black" cx="63.12" cy="-378" rx="52.26" ry="18"/>
<text text-anchor="middle" x="63.12" y="-373.32" font-family="Times,serif" font-size="14.00">smtp:25</text>
</g>
<!-- smtpd_helo_required -->
<g id="node6" class="node">
<title>smtpd_helo_required</title>
<ellipse fill="none" stroke="black" cx="130.12" cy="-306" rx="116.45" ry="18"/>
<text text-anchor="middle" x="130.12" y="-301.32" font-family="Times,serif" font-size="14.00">smtpd_helo_required</text>
</g>
<!-- smtp&#45;&gt;smtpd_helo_required -->
<g id="edge3" class="edge">
<title>smtp&#45;&gt;smtpd_helo_required</title>
<path fill="none" stroke="black" d="M79,-360.41C87.06,-351.99 97.02,-341.58 106,-332.2"/>
<polygon fill="black" stroke="black" points="108.46,-334.69 112.85,-325.05 103.41,-329.85 108.46,-334.69"/>
</g>
<!-- smtps -->
<g id="node3" class="node">
<title>smtps</title>
<ellipse fill="none" stroke="black" cx="197.12" cy="-378" rx="63.83" ry="18"/>
<text text-anchor="middle" x="197.12" y="-373.32" font-family="Times,serif" font-size="14.00">smtps:465</text>
</g>
<!-- smtps&#45;&gt;smtpd_helo_required -->
<g id="edge4" class="edge">
<title>smtps&#45;&gt;smtpd_helo_required</title>
<path fill="none" stroke="black" d="M181.25,-360.41C173.19,-351.99 163.23,-341.58 154.25,-332.2"/>
<polygon fill="black" stroke="black" points="156.84,-329.85 147.4,-325.05 151.79,-334.69 156.84,-329.85"/>
</g>
<!-- submission -->
<g id="node4" class="node">
<title>submission</title>
<ellipse fill="none" stroke="black" cx="300.12" cy="-522" rx="89.61" ry="18"/>
<text text-anchor="middle" x="300.12" y="-517.33" font-family="Times,serif" font-size="14.00">submission:587</text>
</g>
<!-- lmtp -->
<g id="node5" class="node">
<title>lmtp</title>
<ellipse fill="none" stroke="black" cx="130.12" cy="-90" rx="59.1" ry="18"/>
<text text-anchor="middle" x="130.12" y="-85.33" font-family="Times,serif" font-size="14.00">lmtp:unix</text>
</g>
<!-- dovecot -->
<g id="node10" class="node">
<title>dovecot</title>
<ellipse fill="none" stroke="black" cx="130.12" cy="-18" rx="50.16" ry="18"/>
<text text-anchor="middle" x="130.12" y="-13.32" font-family="Times,serif" font-size="14.00">dovecot</text>
</g>
<!-- lmtp&#45;&gt;dovecot -->
<g id="edge8" class="edge">
<title>lmtp&#45;&gt;dovecot</title>
<path fill="none" stroke="black" d="M130.12,-71.7C130.12,-64.41 130.12,-55.73 130.12,-47.54"/>
<polygon fill="black" stroke="black" points="133.62,-47.62 130.12,-37.62 126.62,-47.62 133.62,-47.62"/>
</g>
<!-- strict_rfc821_envelopes -->
<g id="node7" class="node">
<title>strict_rfc821_envelopes</title>
<ellipse fill="none" stroke="black" cx="130.12" cy="-234" rx="130.12" ry="18"/>
<text text-anchor="middle" x="130.12" y="-229.32" font-family="Times,serif" font-size="14.00">strict_rfc821_envelopes</text>
</g>
<!-- smtpd_helo_required&#45;&gt;strict_rfc821_envelopes -->
<g id="edge5" class="edge">
<title>smtpd_helo_required&#45;&gt;strict_rfc821_envelopes</title>
<path fill="none" stroke="black" d="M130.12,-287.7C130.12,-280.41 130.12,-271.73 130.12,-263.54"/>
<polygon fill="black" stroke="black" points="133.62,-263.62 130.12,-253.62 126.62,-263.62 133.62,-263.62"/>
</g>
<!-- disable_vrfy_command -->
<g id="node8" class="node">
<title>disable_vrfy_command</title>
<ellipse fill="none" stroke="black" cx="130.12" cy="-162" rx="124.86" ry="18"/>
<text text-anchor="middle" x="130.12" y="-157.32" font-family="Times,serif" font-size="14.00">disable_vrfy_command</text>
</g>
<!-- strict_rfc821_envelopes&#45;&gt;disable_vrfy_command -->
<g id="edge6" class="edge">
<title>strict_rfc821_envelopes&#45;&gt;disable_vrfy_command</title>
<path fill="none" stroke="black" d="M130.12,-215.7C130.12,-208.41 130.12,-199.73 130.12,-191.54"/>
<polygon fill="black" stroke="black" points="133.62,-191.62 130.12,-181.62 126.62,-191.62 133.62,-191.62"/>
</g>
<!-- disable_vrfy_command&#45;&gt;lmtp -->
<g id="edge7" class="edge">
<title>disable_vrfy_command&#45;&gt;lmtp</title>
<path fill="none" stroke="black" d="M130.12,-143.7C130.12,-136.41 130.12,-127.73 130.12,-119.54"/>
<polygon fill="black" stroke="black" points="133.62,-119.62 130.12,-109.62 126.62,-119.62 133.62,-119.62"/>
</g>
<!-- postgrey&#45;&gt;smtp -->
<g id="edge1" class="edge">
<title>postgrey&#45;&gt;smtp</title>
<path fill="none" stroke="black" d="M114.25,-432.41C106.07,-423.87 95.93,-413.28 86.85,-403.79"/>
<polygon fill="black" stroke="black" points="89.38,-401.37 79.94,-396.56 84.32,-406.21 89.38,-401.37"/>
</g>
<!-- postgrey&#45;&gt;smtps -->
<g id="edge2" class="edge">
<title>postgrey&#45;&gt;smtps</title>
<path fill="none" stroke="black" d="M146,-432.41C154.18,-423.87 164.32,-413.28 173.4,-403.79"/>
<polygon fill="black" stroke="black" points="175.93,-406.21 180.31,-396.56 170.87,-401.37 175.93,-406.21"/>
</g>
</g>
</svg>
